<?xml version="1.0" encoding="UTF-8"?><svg xmlns="http://www.w3.org/2000/svg" xmlns:xlink="http://www.w3.org/1999/xlink" version="1.1" id="Ebene_1" x="0px" y="0px" viewBox="0 0 60.3 46" style="enable-background:new 0 0 60.3 46;" xml:space="preserve"><style type="text/css">.st0{fill:#FFFFFF;}	.st1{fill:#95C11F;}</style><g><path class="st0" d="M3.3,32.4c-0.1-0.5-0.4-0.8-1-0.8c-0.8,0-1.1,0.8-1.1,1.5c0,0.7,0.3,1.5,1.1,1.5c0.6,0,0.9-0.4,1-0.9h1.2 c-0.2,1.2-1,1.9-2.3,1.9c-1.4,0-2.4-1-2.4-2.4c0-1.5,0.9-2.5,2.4-2.5c1.1,0,2.1,0.6,2.2,1.8H3.3z"/><path class="st0" d="M5.3,32.2c0.1-1.2,1.1-1.6,2.2-1.6c0.9,0,2.1,0.2,2.1,1.3v2.4c0,0.4,0,0.8,0.2,1H8.4c0-0.1-0.1-0.3-0.1-0.5 c-0.4,0.4-1,0.6-1.6,0.6c-0.9,0-1.6-0.4-1.6-1.4c0-1.1,0.8-1.3,1.6-1.4c0.8-0.1,1.5-0.1,1.5-0.6c0-0.6-0.4-0.6-0.8-0.6 c-0.5,0-0.8,0.2-0.8,0.7H5.3z M8.3,33.2c-0.2,0.2-0.7,0.2-1.1,0.3c-0.4,0.1-0.8,0.2-0.8,0.7c0,0.5,0.4,0.6,0.8,0.6c1,0,1-0.8,1-1.1 V33.2z"/><path class="st0" d="M10.6,30.8h1.2v0.9h0c0.2-0.6,0.9-1,1.5-1c0.1,0,0.2,0,0.3,0v1.2c-0.1,0-0.3,0-0.5,0c-0.9,0-1.3,0.7-1.3,1.5 v2.1h-1.3V30.8z"/><path class="st0" d="M18.6,35.2c0,0.8-0.3,2.1-2.4,2.1c-0.9,0-2-0.4-2.1-1.5h1.3c0.1,0.5,0.5,0.6,1,0.6c0.7,0,1-0.5,1-1.2v-0.6h0 c-0.3,0.5-0.8,0.7-1.4,0.7c-1.4,0-2-1.1-2-2.4c0-1.2,0.7-2.3,2-2.3c0.6,0,1.1,0.2,1.4,0.8h0v-0.6h1.2V35.2z M17.4,33.1 c0-0.8-0.3-1.4-1.1-1.4c-0.7,0-1,0.6-1,1.3c0,0.7,0.3,1.4,1,1.4C17,34.4,17.4,33.7,17.4,33.1z"/><path class="st0" d="M21.9,30.7c1.5,0,2.4,1,2.4,2.5c0,1.5-0.9,2.5-2.4,2.5c-1.5,0-2.4-1-2.4-2.5C19.4,31.6,20.4,30.7,21.9,30.7z M21.9,34.6c0.9,0,1.1-0.8,1.1-1.5c0-0.8-0.3-1.5-1.1-1.5c-0.9,0-1.1,0.8-1.1,1.5C20.7,33.9,21,34.6,21.9,34.6z"/><path class="st0" d="M25.2,32.4h2.7v1.1h-2.7V32.4z"/><path class="st0" d="M28.8,30.8h1.2v0.6h0c0.3-0.5,0.8-0.7,1.4-0.7c1.5,0,2.1,1.2,2.1,2.5c0,1.2-0.7,2.4-2.1,2.4 c-0.6,0-1.1-0.2-1.4-0.7h0v2.2h-1.3V30.8z M32.3,33.1c0-0.7-0.3-1.5-1.1-1.5c-0.8,0-1.1,0.8-1.1,1.5c0,0.8,0.3,1.5,1.1,1.5 C32,34.6,32.3,33.9,32.3,33.1z"/><path class="st0" d="M34.3,32.2c0.1-1.2,1.1-1.6,2.2-1.6c0.9,0,2.1,0.2,2.1,1.3v2.4c0,0.4,0,0.8,0.2,1h-1.3c0-0.1-0.1-0.3-0.1-0.5 c-0.4,0.4-1,0.6-1.6,0.6c-0.9,0-1.6-0.4-1.6-1.4c0-1.1,0.8-1.3,1.6-1.4c0.8-0.1,1.5-0.1,1.5-0.6c0-0.6-0.4-0.6-0.8-0.6 c-0.5,0-0.8,0.2-0.9,0.7H34.3z M37.3,33.2c-0.2,0.2-0.7,0.2-1.1,0.3c-0.4,0.1-0.8,0.2-0.8,0.7c0,0.5,0.4,0.6,0.8,0.6 c1,0,1-0.8,1-1.1V33.2z"/><path class="st0" d="M39.6,30.8h1.2v0.9h0c0.2-0.6,0.9-1,1.5-1c0.1,0,0.2,0,0.3,0v1.2c-0.1,0-0.3,0-0.5,0c-0.9,0-1.3,0.7-1.3,1.5 v2.1h-1.3V30.8z"/><path class="st0" d="M45,30.8h0.9v0.9H45V34c0,0.4,0.1,0.5,0.5,0.5c0.1,0,0.3,0,0.4,0v1c-0.2,0-0.5,0-0.8,0c-0.8,0-1.5-0.2-1.5-1.1 v-2.8h-0.8v-0.9h0.8v-1.4H45V30.8z"/><path class="st0" d="M46.6,30.8h1.2v0.7h0c0.3-0.5,0.9-0.8,1.4-0.8c1.4,0,1.7,0.8,1.7,1.9v2.9h-1.3v-2.6c0-0.8-0.2-1.1-0.8-1.1 c-0.7,0-1,0.4-1,1.3v2.5h-1.3V30.8z"/><path class="st0" d="M53,33.4c0,0.8,0.4,1.2,1.1,1.2c0.5,0,0.9-0.3,1-0.6h1.1c-0.4,1.1-1.1,1.6-2.2,1.6c-1.5,0-2.4-1-2.4-2.5 c0-1.4,1-2.5,2.4-2.5c1.6,0,2.4,1.3,2.3,2.8H53z M55.1,32.6c-0.1-0.7-0.4-1-1-1c-0.8,0-1.1,0.6-1.1,1H55.1z"/><path class="st0" d="M57.2,30.8h1.2v0.9h0c0.2-0.6,0.9-1,1.5-1c0.1,0,0.2,0,0.3,0v1.2c-0.1,0-0.3,0-0.5,0c-0.9,0-1.3,0.7-1.3,1.5 v2.1h-1.3V30.8z"/></g><g><g><path class="st0" d="M36,20.3c1.5-0.2,3.1-0.4,4.6-0.5c-1.1-0.3-2.2-0.5-3.3-0.7c-1.3-0.2-2.6-0.3-3.9-0.3c-2.6,0-5.1,0.3-7.6,0.8 c-1,0.2-2.1,0.4-3.1,0.7c0.8-0.7,1.7-1.4,2.8-1.6c0.2,0,0.4-0.1,0.7-0.1c0.2,0,0.3,0,0.2-0.2c-0.1-0.2-0.4-0.2-0.5-0.2 c-0.2,0-0.5,0-0.7,0c-0.2,0-0.4,0.1-0.6,0c-0.2-0.1-0.4-0.2-0.7-0.3c-0.5-0.1-1-0.1-1.5,0.1c-0.5,0.2-1,0.4-1.4,0.7 c-0.4,0.2-0.9,0.2-1.4,0c-0.1,0-0.1-0.1-0.2-0.1c0.8-0.5,1.7-0.9,2.6-1.3c1.4-0.5,2.9-0.7,4.3-0.9c4.8-0.8,9.5-1.5,14.3-2 c0.3,0,0.6-0.1,1-0.1c-0.9-0.3-1.8-0.4-2.8-0.6c-1.3-0.2-2.7-0.3-4-0.3c-2.2,0-4.4,0.4-6.6,0.8c-0.6,0.1-1.2,0.3-1.8,0.4 c0.8-0.7,1.7-1.3,2.8-1.4c0.1,0,0.3,0,0.3-0.1c0-0.2-0.3-0.3-0.5-0.3c-0.4,0-0.8,0.1-1.1,0c-0.5-0.2-1-0.3-1.5-0.2 c-0.6,0.1-1,0.3-1.5,0.6c-0.1,0.1-0.3,0.2-0.5,0.2c-0.2,0-0.4-0.1-0.6-0.1c-0.3-0.1-0.5-0.3-0.8-0.6c-0.4-0.5-0.8-1-1.2-1.5 c-0.4-0.5-0.8-1.1-1.3-1.6c-1.3-1.6-2.7-3.3-4.2-4.8c-1.5-1.5-3.1-2.8-5-3.8c-0.7-0.4-1.4-0.8-2.1-1c0.8,0.5,1.4,1.2,2.1,1.9 c0.6,0.6,1.1,1.3,1.7,2c0.9,1.2,1.8,2.5,2.6,3.8c1.2,1.9,2.4,3.7,3.7,5.5c0.4,0.6,0.8,1.1,1.2,1.7c0.1,0.2,0.3,0.3,0.4,0.5 c0,0.1,0.1,0.1,0,0.2c-0.1,0.1-0.2,0.2-0.4,0.3c-0.5,0.4-1,0.7-1.6,0.9c-0.1,0-0.7,0.4-0.8,0.3c-0.1-0.1-0.1-0.1-0.2-0.2 c-1-1.2-1.9-2.4-2.9-3.6c-1.7-2-3.3-4-5.2-5.7c-1-0.9-2-1.7-3-2.5C5.7,4.5,4.8,4,3.8,3.5C3.3,3.3,2.9,3.1,2.5,3 C2.7,3.1,3,3.3,3.2,3.5c0.7,0.6,1.4,1.3,2.1,2.1c1.6,1.9,3,3.9,4.4,6c1,1.5,1.9,3.1,2.9,4.6c1,1.4,2,2.8,3,4.2 c0.1,0.2,0.3,0.4,0.4,0.6c0.1,0.1,0.2,0.2,0.1,0.3c-0.5,0.4-1.1,0.8-1.7,1.1c-0.9,0.6-2,0.9-3,1.4c-0.5,0.2-1,0.3-1.5,0.5 c-0.2,0-0.3,0.1-0.5,0.1c-0.3,0.1-0.1,0.3,0.1,0.5c0.4,0.3,0.8,0.6,1.2,0.8c0.4,0.2,0.9,0.5,1.4,0.5c0.4,0,0.7-0.3,1-0.5 c0.4-0.3,0.9-0.6,1.3-0.9c1-0.6,2.1-1.1,3.2-1.5c0.7-0.2,1.5-0.4,2.2-0.6c1.9-0.4,3.8-0.7,5.7-1c2.7-0.4,5.4-0.8,8.1-1.1 C34.5,20.5,35.3,20.4,36,20.3"/><path class="st0" d="M52.5,23.1c-1.9,1.4-4.1,2.3-6.4,2.8c-2.7,0.6-5.5,0.7-8.2,0.2c-2.7-0.5-5.6-1.7-7.4-3.8c0.1,0,0.2-0.1,0.3,0 c0.2,0.2,0.5,0.4,0.8,0.6c0.5,0.4,1.1,0.7,1.7,1c1.2,0.6,2.5,1,3.8,1.2c2.7,0.5,5.4,0.4,8.1-0.2c2.2-0.5,4.4-1.5,6.2-3 c1.7-1.4,3-3.5,2.8-5.8c-0.2-2.2-1.7-3.9-3.5-5c-2-1.3-4.4-1.9-6.8-2c-2.2-0.2-4.5,0-6.7,0.7C36,9.9,35,10.3,34,10.8 c-0.5,0.3-1,0.5-1.4,0.9c-0.2,0.1-0.4,0.3-0.6,0.5c-0.1,0.1-0.2,0.2-0.3,0.2c-0.2,0-0.3,0-0.5,0.1c1.8-1.9,4.3-3.2,6.8-3.9 c2.6-0.7,5.4-1,8.1-0.7c2.3,0.3,4.7,1,6.7,2.3c1.8,1.1,3.3,2.8,3.7,5C57,18.4,55,21.3,52.5,23.1"/></g></g><g><path class="st0" d="M12.9,40.4l0.4,1.4h0l0.4-1.4h0.8v2.1h-0.5v-1.6h0l-0.4,1.6H13l-0.4-1.6h0v1.6h-0.5v-2.1H12.9z"/><path class="st0" d="M15.5,40.9c0.2,0,0.4,0.1,0.6,0.2c0.1,0.2,0.2,0.4,0.2,0.6v0.1h-1.1c0,0.1,0,0.2,0.1,0.3 c0.1,0.1,0.1,0.1,0.2,0.1c0.1,0,0.1,0,0.2,0c0.1,0,0.1-0.1,0.1-0.1h0.5c0,0.2-0.1,0.3-0.3,0.4c-0.1,0.1-0.3,0.1-0.5,0.1 c-0.3,0-0.5-0.1-0.6-0.2s-0.2-0.3-0.2-0.6c0-0.2,0.1-0.4,0.2-0.6S15.3,40.9,15.5,40.9z M15.8,41.6c0-0.1,0-0.2-0.1-0.2 c-0.1-0.1-0.1-0.1-0.2-0.1c-0.1,0-0.2,0-0.2,0.1c-0.1,0.1-0.1,0.1-0.1,0.2H15.8z"/><path class="st0" d="M17.5,40.9c0.2,0,0.4,0.1,0.4,0.2c0.1-0.2,0.3-0.2,0.5-0.2c0.2,0,0.3,0.1,0.4,0.2c0.1,0.1,0.1,0.3,0.1,0.5v0.9 h-0.5v-0.9c0-0.1,0-0.1-0.1-0.2c0,0-0.1-0.1-0.2-0.1c-0.1,0-0.1,0-0.1,0c0,0-0.1,0.1-0.1,0.1c0,0.1,0,0.1,0,0.2v0.8h-0.5v-0.9 c0-0.2-0.1-0.3-0.2-0.3c-0.1,0-0.2,0-0.2,0.1S17,41.6,17,41.7v0.8h-0.5V41H17v0.2h0c0-0.1,0.1-0.1,0.2-0.2 C17.3,41,17.4,40.9,17.5,40.9z"/><path class="st0" d="M19.8,40.4v0.7h0c0.1-0.1,0.2-0.2,0.4-0.2c0.2,0,0.3,0.1,0.5,0.2c0.1,0.1,0.2,0.3,0.2,0.6 c0,0.3-0.1,0.5-0.2,0.6c-0.1,0.2-0.3,0.2-0.5,0.2c-0.2,0-0.3-0.1-0.4-0.2h0v0.2h-0.5v-2.1H19.8z M19.7,41.7c0,0.1,0,0.3,0.1,0.3 c0,0.1,0.1,0.1,0.2,0.1c0.1,0,0.2,0,0.2-0.1c0.1-0.1,0.1-0.2,0.1-0.3c0-0.1,0-0.2-0.1-0.3c0-0.1-0.1-0.1-0.2-0.1 c-0.1,0-0.2,0-0.2,0.1C19.8,41.5,19.7,41.6,19.7,41.7z"/><path class="st0" d="M21.9,40.9c0.2,0,0.4,0.1,0.6,0.2c0.1,0.2,0.2,0.4,0.2,0.6v0.1h-1.1c0,0.1,0,0.2,0.1,0.3 c0.1,0.1,0.1,0.1,0.2,0.1c0.1,0,0.1,0,0.2,0c0.1,0,0.1-0.1,0.1-0.1h0.5c0,0.2-0.1,0.3-0.3,0.4c-0.1,0.1-0.3,0.1-0.5,0.1 c-0.3,0-0.5-0.1-0.6-0.2C21.1,42.2,21,42,21,41.7c0-0.2,0.1-0.4,0.2-0.6S21.6,40.9,21.9,40.9z M22.2,41.6c0-0.1,0-0.2-0.1-0.2 c-0.1-0.1-0.1-0.1-0.2-0.1c-0.1,0-0.2,0-0.2,0.1c-0.1,0.1-0.1,0.1-0.1,0.2H22.2z"/><path class="st0" d="M23.9,41c0,0,0.1,0,0.1,0v0.5c-0.1,0-0.1,0-0.2,0c-0.1,0-0.2,0-0.3,0.1c-0.1,0.1-0.1,0.2-0.1,0.3v0.8h-0.5V41 h0.5v0.3h0c0-0.1,0.1-0.2,0.2-0.2C23.7,41,23.8,41,23.9,41z"/><path class="st0" d="M22,43.8c0.2,0,0.4,0.1,0.6,0.2c0.2,0.2,0.2,0.3,0.2,0.6c0,0.2-0.1,0.4-0.2,0.6c-0.1,0.2-0.3,0.2-0.6,0.2 c-0.2,0-0.4-0.1-0.6-0.2c-0.2-0.2-0.2-0.3-0.2-0.6c0-0.2,0.1-0.4,0.2-0.6C21.6,43.8,21.8,43.8,22,43.8z M21.7,44.6 c0,0.1,0,0.2,0.1,0.3C21.8,45,21.9,45,22,45c0.1,0,0.2,0,0.2-0.1c0.1-0.1,0.1-0.2,0.1-0.3c0-0.1,0-0.2-0.1-0.3 c-0.1-0.1-0.1-0.1-0.2-0.1c-0.1,0-0.2,0-0.2,0.1C21.7,44.3,21.7,44.4,21.7,44.6z"/><path class="st0" d="M23.8,43.2c0.1,0,0.1,0,0.2,0v0.4c-0.1,0-0.1,0-0.1,0c-0.1,0-0.1,0-0.1,0c0,0,0,0,0,0.1c0,0,0,0.1,0,0.1v0H24 v0.3h-0.3v1.2h-0.5v-1.2h-0.2v-0.3h0.2c0-0.2,0-0.3,0.1-0.4c0-0.1,0.1-0.1,0.2-0.2C23.5,43.3,23.6,43.2,23.8,43.2z"/></g><g><path class="st1" d="M28.7,46v-2.6l2.4,2.6h7.1l1-1.2l1,1.2h2.7l-2.3-2.8l2.3-2.8h-2.7l-1,1.2l-1-1.2h-7.1V43l-2.4-2.6l-2.2,0V46 H28.7z M33.3,40.8h2.4l0.3,0.4h-2.8V40.8z M33.3,41.6h3.1l0.3,0.4h-3.4V41.6z M33.3,42.3H37l0.3,0.4h-4V42.3z M33.3,43h4.3l0.2,0.2 l-0.2,0.2h-4.3V43z M33.3,43.8h4L37,44.1h-3.7V43.8z M33.3,44.5h3.4l-0.3,0.4h-3.1V44.5z M33.3,45.2H36l-0.3,0.4h-2.4V45.2z"/><g><path class="st0" d="M43.9,40.4h0.5l1.2,1.6v-1.6h0.6V43h-0.5l-1.3-1.6V43h-0.6V40.4z"/><path class="st0" d="M47.3,40.4h0.6V43h-0.6V40.4z"/><path class="st0" d="M48.9,40.4H50c0.6,0,1,0.4,1,0.9v0c0,0.6-0.5,0.9-1,0.9h-0.4V43h-0.6V40.4z M49.9,41.8c0.3,0,0.5-0.2,0.5-0.4 v0c0-0.3-0.2-0.4-0.5-0.4h-0.4v0.8H49.9z"/><path class="st0" d="M51.7,40.4h1.1c0.6,0,1,0.4,1,0.9v0c0,0.6-0.5,0.9-1,0.9h-0.4V43h-0.6V40.4z M52.8,41.8 c0.3,0,0.5-0.2,0.5-0.4v0c0-0.3-0.2-0.4-0.5-0.4h-0.4v0.8H52.8z"/><path class="st0" d="M54.4,41.8L54.4,41.8c0-0.7,0.6-1.3,1.4-1.3c0.8,0,1.4,0.6,1.4,1.3v0c0,0.7-0.6,1.3-1.4,1.3 C55,43.1,54.4,42.5,54.4,41.8z M56.6,41.8L56.6,41.8c0-0.5-0.3-0.8-0.8-0.8c-0.5,0-0.8,0.4-0.8,0.8v0c0,0.4,0.3,0.8,0.8,0.8 C56.2,42.6,56.6,42.2,56.6,41.8z"/><path class="st0" d="M57.9,40.4h0.5l1.2,1.6v-1.6h0.6V43h-0.5l-1.3-1.6V43h-0.6V40.4z"/></g><g><g><path class="st0" d="M43.9,43.6h1.7v0.2h-1.5v0.8h1.3v0.2h-1.3v0.8h1.5V46h-1.7V43.6z"/><path class="st0" d="M47,44.8l-0.9-1.2h0.3l0.7,1l0.7-1h0.3l-0.9,1.2l0.9,1.2h-0.3l-0.8-1l-0.8,1h-0.3L47,44.8z"/><path class="st0" d="M48.9,43.6h0.9c0.5,0,0.9,0.3,0.9,0.8v0c0,0.5-0.4,0.8-0.9,0.8h-0.6V46h-0.3V43.6z M49.7,44.9 c0.4,0,0.7-0.2,0.7-0.5v0c0-0.3-0.3-0.5-0.6-0.5h-0.6v1H49.7z"/><path class="st0" d="M51.3,43.6h1c0.3,0,0.5,0.1,0.7,0.2c0.1,0.1,0.2,0.3,0.2,0.5v0c0,0.4-0.3,0.6-0.6,0.7l0.7,1h-0.3L52.2,45h0 h-0.7V46h-0.3V43.6z M52.3,44.8c0.4,0,0.6-0.2,0.6-0.5v0c0-0.3-0.2-0.5-0.6-0.5h-0.7v1H52.3z"/><path class="st0" d="M53.9,43.6h1.7v0.2h-1.5v0.8h1.3v0.2h-1.3v0.8h1.5V46h-1.7V43.6z"/><path class="st0" d="M56.2,45.6l0.2-0.2c0.2,0.2,0.5,0.3,0.8,0.3c0.3,0,0.5-0.2,0.5-0.4v0c0-0.2-0.1-0.3-0.6-0.5 c-0.5-0.1-0.8-0.3-0.8-0.7v0c0-0.4,0.3-0.6,0.8-0.6c0.3,0,0.6,0.1,0.8,0.3l-0.2,0.2c-0.2-0.2-0.4-0.3-0.7-0.3 c-0.3,0-0.5,0.2-0.5,0.4v0c0,0.2,0.1,0.4,0.6,0.5c0.5,0.1,0.8,0.3,0.8,0.7v0c0,0.4-0.3,0.7-0.8,0.7C56.8,46,56.5,45.9,56.2,45.6z "/><path class="st0" d="M58.5,45.6l0.2-0.2c0.2,0.2,0.5,0.3,0.8,0.3c0.3,0,0.5-0.2,0.5-0.4v0c0-0.2-0.1-0.3-0.6-0.5 c-0.5-0.1-0.8-0.3-0.8-0.7v0c0-0.4,0.3-0.6,0.8-0.6c0.3,0,0.6,0.1,0.8,0.3L60,44.1c-0.2-0.2-0.4-0.3-0.7-0.3 c-0.3,0-0.5,0.2-0.5,0.4v0c0,0.2,0.1,0.4,0.6,0.5c0.5,0.1,0.8,0.3,0.8,0.7v0c0,0.4-0.3,0.7-0.8,0.7C59.1,46,58.8,45.9,58.5,45.6z "/></g></g></g></svg>